:SAMPLES-PER-SECOND 30
:FULLY-SPECIFIED
:DEGREES
1090
root  68.5686 32.2843 -5.22016 25.2622 48.712 24.8186
RightUpLeg  -6.77722 -0.0552633 -47.4027
RightLeg  43.6694 -4.63824 -5.02235
RightFoot  -18.2667 1.12374 19.9635
RightToes  5.82063e-011 0 -3.6325e-017
Spine  18.5677 -1.60025 0.233488
Spine1  4.76596 -8.63844 26.6822
HEad  -68.4708 21.8451 -39.6478
LeftShoulder1  0.119754 -1.29693 6.36477
LeftArm  55.4161 -71.0932 -116.516
LeftForeArm  -4.03698 -15.5896 -6.7594
LeftHand  -0.0261239 5.28245 4.20038
RightShoulder  0.226635 -2.57513 20.1048
RightArm  -58.2422 40.0862 38.7922
RightForeArm  -33.5611 36.1959 9.92175
RightHand  -5.832 25.2222 -21.9743
LeftUpLeg  -48.996 -1.84938 -19.5438
LeftLeg  52.8675 -7.19832 -9.61741
LeftFoot  -5.3505 -0.327696 6.89034
LeftToes  -1.20963e-009 8.6283e-011 2.04439e-011
1091
root  68.9747 33.2692 -4.96845 27.3455 54.6673 25.2435
RightUpLeg  -2.29435 -5.13817 -44.0429
RightLeg  40.456 -5.67962 -5.46512
RightFoot  -12.2407 0.0304843 16.474
RightToes  5.82063e-011 0 -3.6325e-017
Spine  13.9289 0.707424 4.92091
Spine1  7.35997 -5.56457 24.3602
HEad  -68.6869 13.6237 -37.036
LeftShoulder1  -0.0988979 4.60809 2.05137
LeftArm  83.6768 -82.8342 -144.302
LeftForeArm  -16.6722 -15.8233 -4.87771
LeftHand  0.000901691 6.13761 4.63707
RightShoulder  0.517213 -0.113642 8.70196
RightArm  -59.8602 53.059 36.9154
RightForeArm  -40.719 36.448 9.50634
RightHand  -5.79643 32.2001 -19.6795
LeftUpLeg  -45.7231 -3.49404 -18.8917
LeftLeg  47.981 -9.91469 -11.1928
LeftFoot  -2.81999 -0.541167 7.51622
LeftToes  -1.20963e-009 8.6283e-011 2.04439e-011
1092
root  69.2767 34.2675 -4.54654 29.4622 58.0566 25.3555
RightUpLeg  0.410819 -10.8022 -41.7027
RightLeg  36.1644 -5.16009 -4.31235
RightFoot  -8.72574 -0.447214 16.7098
RightToes  5.82063e-011 0 -3.6325e-017
Spine  11.7135 3.3633 9.24303
Spine1  8.69417 -1.18261 18.8285
HEad  -68.7851 7.15201 -34.6331
LeftShoulder1  -0.53666 7.90596 -5.627
LeftArm  -168.602 -79.8378 112.247
LeftForeArm  -34.0301 -13.2457 -2.2707
LeftHand  -0.0503587 6.63193 -0.528274
RightShoulder  0.154034 1.76792 -6.96709
RightArm  -75.2131 63.4629 26.004
RightForeArm  -116.92 36.0842 9.9051
RightHand  174.12 63.1403 178.826
LeftUpLeg  -43.0179 -5.14196 -17.5956
LeftLeg  42.19 -11.5028 -10.6144
LeftFoot  -1.04171 -0.598862 6.71305
LeftToes  -1.20963e-009 8.6283e-011 2.04439e-011
1093
root  69.495 35.2205 -4.01573 32.4719 58.8454 24.999
RightUpLeg  0.295796 -15.9797 -39.8
RightLeg  31.3896 -4.25175 -3.03169
RightFoot  -5.82564 -0.910942 17.9254
RightToes  5.82063e-011 0 -3.6325e-017
Spine  11.587 6.83182 13.4417
Spine1  7.56979 5.14613 10.2132
HEad  -66.824 4.52008 -33.3799
LeftShoulder1  0.16089 2.58018 -15.0032
LeftArm  -133.758 -66.3103 88.3327
LeftForeArm  -51.4742 -8.49057 1.14971
LeftHand  -0.202916 7.23752 -9.08532
RightShoulder  -0.487063 0.0499989 -26.8568
RightArm  -104.601 65.8309 8.68924
RightForeArm  -68.8952 33.3397 9.13323
RightHand  105.818 32.3142 149.794
LeftUpLeg  -42.0023 -7.0727 -15.842
LeftLeg  35.4128 -11.95 -8.67168
LeftFoot  1.09622 -0.619417 5.62409
LeftToes  -1.20963e-009 8.6283e-011 2.04439e-011
1094
root  69.8096 36.1265 -3.23263 35.2993 58.2447 24.1837
RightUpLeg  -0.608261 -18.3482 -37.535
RightLeg  26.1622 -3.34633 -2.01823
RightFoot  -2.63098 -1.43865 18.5431
RightToes  5.82063e-011 0 -3.6325e-017
Spine  12.1826 9.74483 14.1781
Spine1  4.85965 10.3985 1.9853
HEad  -66.0029 5.19292 -30.5231
LeftShoulder1  2.04261 -5.44555 -16.322
LeftArm  -106.435 -51.4651 74.5315
LeftForeArm  -64.5053 -4.24688 4.6229
LeftHand  -0.314249 7.91365 -12.2368
RightShoulder  -0.0182194 -3.49016 -43.7544
RightArm  -132.599 62.5295 -3.90913
RightForeArm  18.9012 28.2154 5.54817
RightHand  149.448 48.629 163.798
LeftUpLeg  -41.1195 -8.83144 -13.5785
LeftLeg  28.2122 -11.4568 -6.27278
LeftFoot  2.72393 -0.523515 4.1047
LeftToes  -1.20963e-009 8.6283e-011 2.04439e-011
1095
root  70.2967 36.8977 -2.16634 39.1884 59.3464 24.0516
RightUpLeg  -0.47863 -19.1196 -34.0877
RightLeg  20.8674 -0.99441 -0.742928
RightFoot  -0.505917 -1.79863 18.7424
RightToes  5.82063e-011 0 -3.6325e-017
Spine  8.83415 10.5394 6.77223
Spine1  4.07716 9.90766 4.20777
HEad  -65.4871 12.9818 -29.2757
LeftShoulder1  2.07229 -3.44804 -23.5323
LeftArm  -86.2872 -34.1103 76.493
LeftForeArm  -65.1973 -3.78833 4.38608
LeftHand  0.207472 3.13819 -12.3175
RightShoulder  2.15529 -9.15108 -50.5453
RightArm  -172.498 59.6154 -37.7687
RightForeArm  30.3835 22.3533 0.9243
RightHand  126.295 62.5448 143.516
LeftUpLeg  -40.449 -11.1649 -10.706
LeftLeg  21.5553 -10.8652 -4.38514
LeftFoot  4.08726 -0.392957 2.71465
LeftToes  -1.20963e-009 8.6283e-011 2.04439e-011
1096
root  71.0131 37.5294 -0.915492 46.4491 62.19 27.425
RightUpLeg  0.887254 -20.5612 -30.8263
RightLeg  16.0513 2.91242 0.323898
RightFoot  0.835482 -2.08706 19.466
RightToes  5.82063e-011 0 -3.6325e-017
Spine  4.38697 11.8577 -2.08057
Spine1  -0.638229 9.44925 12.4989
HEad  -53.707 22.4291 -32.1992
LeftShoulder1  1.76903 -1.75223 -27.5536
LeftArm  -79.0792 -28.0168 65.7326
LeftForeArm  -70.2493 -7.41277 7.46086
LeftHand  0.0547982 4.60495 -12.0081
RightShoulder  6.85644 -20.2878 -53.4956
RightArm  167.293 52.438 -73.3163
RightForeArm  16.7822 16.7824 -9.69642
RightHand  81.2875 66.1509 102.865
LeftUpLeg  -39.0842 -13.3017 -9.13139
LeftLeg  14.4059 -11.3711 -2.88947
LeftFoot  5.82029 -0.27757 1.61187
LeftToes  -1.20963e-009 8.6283e-011 2.04439e-011
